<svg xmlns="http://www.w3.org/2000/svg" width="64" height="64" viewBox="0 0 24 24" fill="none" stroke="#0891b2" stroke-width="2" stroke-linecap="round" stroke-linejoin="round">
  <!-- Coque de la pirogue -->
  <path d="M2 20a2.4 2.4 0 0 0 2 1 2.4 2.4 0 0 0 2-1 2.4 2.4 0 0 1 4 0 2.4 2.4 0 0 0 4 0 2.4 2.4 0 0 1 4 0 2.4 2.4 0 0 0 2 1 2.4 2.4 0 0 0 2-1"/>
  <path d="M4 18 6 9h12l2 9"/>
  <path d="M6 13h12"/>
  <!-- Voile traditionnelle -->
  <path d="M10 9V4l8 2-2 3"/>
  <!-- Mât -->
  <line x1="12" y1="9" x2="12" y2="4"/>
  <!-- Vagues -->
  <path d="M1 22c1-1 3-1 4 0s3 1 4 0 3-1 4 0 3 1 4 0 3-1 4 0" opacity="0.5"/>
</svg>